<?xml version="1.0" encoding="UTF-8"?><svg id="a" xmlns="http://www.w3.org/2000/svg" viewBox="0 0 112.7 90.6"><defs><style>.b{fill:#007da4;}.c{fill:#007467;}.d{fill:#fff;}.e{fill:#bed8e6;}</style></defs><path class="e" d="M71.3,55.3l-3.4,26.9c0,.9-.9,1.5-1.8,1.4h0c-22.4-2.8-38.3-23.4-35.5-45.8l3-23.3c.2-1.2,1.3-2.1,2.5-1.9l2.3,.3c20.8,2.5,35.6,21.5,32.9,42.4Z"/><path class="b" d="M71.3,48.4l4.9,28.4c.2,1-.5,1.9-1.4,2l-19,3.3c-10.8,1.9-21-5.3-22.9-16.1l-7.7-44.8c-.3-1.7,.8-3.3,2.5-3.6h0c20.6-3.5,40.1,10.3,43.6,30.8Z"/><path class="c" d="M76.6,56.6l5,21.1c.3,1.3-.5,2.6-1.8,3h0c-24.4,5.7-48.8-9.4-54.6-33.8l-4.8-20.1c-.3-1.3,.5-2.5,1.8-2.8l1.2-.3c23.7-5.6,47.6,9.1,53.2,32.9Z"/><g><path class="d" d="M28.6,63.1c.2,3.4,1.5,6.3,5.2,6.5,3.6,0,4.9-2.1,5.1-5,0-3.3-1.4-5.3-6.5-7.9-6.8-3.5-9.4-6.5-9.2-12.5,.2-6.5,4.5-10.7,11.8-10.5,9.1,.3,11.1,6.5,11,11.8l-7-.3c0-2.3-.6-5.7-4.3-5.9-2.9,0-4.2,1.7-4.3,4.4-.1,2.9,1.1,4.3,5.8,6.7,7.1,3.6,10.2,7,10,13.7-.2,6.3-4.3,11.4-12.8,11.1-9.3-.3-11.9-6.4-11.9-12.4l7.1,.3Z"/><path class="d" d="M52.2,37.7c0-1.6,1.4-2.8,2.9-2.7l7.7,.3c10.4,.4,14.2,7.2,13.7,19.8-.5,13.6-4.6,20.8-15.7,20.4l-7.4-.3c-1.4,0-2.5-1.2-2.5-2.7l1.3-34.8Zm6.1,31.8h2.6c5.6,.3,7.7-3.9,8.1-14.7,.3-9.3-1.2-13.4-7-13.6h-2.6l-1.1,28.3Z"/></g></svg>