<?xml version="1.0" encoding="utf-8"?>
<!-- Generator: Adobe Illustrator 26.3.1, SVG Export Plug-In . SVG Version: 6.00 Build 0)  -->
<svg version="1.1" id="Layer_1" xmlns="http://www.w3.org/2000/svg" xmlns:xlink="http://www.w3.org/1999/xlink" x="0px" y="0px"
	 viewBox="0 0 112.7 90.6" style="enable-background:new 0 0 112.7 90.6;" xml:space="preserve">
<style type="text/css">
	.st0{fill:#BED8E6;}
	.st1{fill:#007DA4;}
	.st2{fill:#007467;}
	.st3{fill:#FFFFFF;}
</style>
<path class="st0" d="M71.3,55.3l-3.4,26.9c-0.1,0.9-0.9,1.5-1.8,1.4l0,0c-22.4-2.8-38.3-23.4-35.5-45.8l3-23.3
	c0.2-1.2,1.3-2.1,2.5-1.9l2.3,0.3C59.2,15.4,74,34.4,71.3,55.3z"/>
<path class="st1" d="M71.3,48.4l4.9,28.4c0.2,1-0.5,1.9-1.4,2l-19,3.3C45,84,34.8,76.8,32.9,66l-7.7-44.8c-0.3-1.7,0.8-3.3,2.5-3.6
	l0,0C48.3,14.1,67.8,27.9,71.3,48.4z"/>
<path class="st2" d="M76.6,56.6l5,21.1c0.3,1.3-0.5,2.6-1.8,3l0,0C55.4,86.4,31,71.3,25.2,46.9l-4.8-20.1c-0.3-1.3,0.5-2.5,1.8-2.8
	l1.2-0.3C47.1,18.1,71,32.8,76.6,56.6z"/>
<g>
	<path class="st3" d="M28.6,63.1c0.2,3.4,1.5,6.3,5.2,6.5c3.6,0.1,4.9-2.1,5.1-5c0.1-3.3-1.4-5.3-6.5-7.9c-6.8-3.5-9.4-6.5-9.2-12.5
		c0.2-6.5,4.5-10.7,11.8-10.5c9.1,0.3,11.1,6.5,11,11.8L39,45.2c-0.1-2.3-0.6-5.7-4.3-5.9c-2.9-0.1-4.2,1.7-4.3,4.4
		c-0.1,2.9,1.1,4.3,5.8,6.7c7.1,3.6,10.2,7,10,13.7c-0.2,6.3-4.3,11.4-12.8,11.1c-9.3-0.3-11.9-6.4-11.9-12.4L28.6,63.1z"/>
	<path class="st3" d="M52.2,37.7c0.1-1.6,1.4-2.8,2.9-2.7l7.7,0.3c10.4,0.4,14.2,7.2,13.7,19.8C76,68.7,71.9,75.9,60.8,75.5
		l-7.4-0.3c-1.4-0.1-2.5-1.2-2.5-2.7L52.2,37.7z M58.3,69.5l2.6,0.1c5.6,0.2,7.7-4,8.1-14.8c0.3-9.3-1.2-13.4-7-13.6l-2.6-0.1
		L58.3,69.5z"/>
</g>
<g>
	<path class="st0" d="M326.8,98l-10.6,83.5c-0.1,0.9-0.9,1.5-1.8,1.4l-10.7-1.4c-47-6-80.2-48.9-74.3-95.9l7.6-60.2
		c0.5-4,4.2-6.8,8.2-6.3l22.7,2.9C305.2,26.8,331.5,60.8,326.8,98z"/>
	<path class="st1" d="M320.3,78.4l15.7,91c0.2,1-0.5,1.9-1.4,2l-37.3,6.4c-29.7,5.1-57.8-14.8-62.9-44.5l-16-92.8
		c-0.8-4.8,2.4-9.4,7.2-10.2l21.6-3.7C281.7,20.8,314.4,43.9,320.3,78.4z"/>
	<path class="st2" d="M333.4,107.2l15.4,64.9c0.3,1.3-0.5,2.6-1.8,3l-5.6,1.3c-54.8,13-109.7-20.9-122.7-75.7l-10.9-46.2
		c-1-4.4,1.7-8.7,6-9.8l13.3-3.2C274.5,30.4,322.1,59.7,333.4,107.2z"/>
	<g>
		<path class="st3" d="M225.9,135.5c0.5,7.7,3.4,14.6,11.9,14.9c8.2,0.3,11.4-4.7,11.6-11.6c0.3-7.6-3.3-12.2-14.9-18.2
			c-15.6-8.1-21.6-15-21.1-28.8c0.5-14.9,10.5-24.7,27.3-24.1c20.9,0.7,25.5,15.1,25.4,27.2l-16.3-0.6c-0.3-5.3-1.4-13.2-9.8-13.5
			c-6.6-0.2-9.7,3.9-9.9,10.2c-0.2,6.7,2.6,9.9,13.3,15.4c16.4,8.3,23.6,16,23,31.6c-0.5,14.6-10,26.3-29.6,25.6
			c-21.3-0.8-27.4-14.7-27.5-28.6L225.9,135.5z"/>
		<path class="st3" d="M280.2,77c0.1-3.6,3.1-6.4,6.7-6.3l17.7,0.6c23.9,0.8,32.6,16.5,31.6,45.7c-1.1,31.4-10.6,48-36.2,47.1
			l-17-0.6c-3.3-0.1-5.8-2.9-5.7-6.1L280.2,77z M294.3,150.4l5.9,0.2c13,0.5,17.8-9.2,18.7-34.1c0.8-21.4-2.9-30.9-16.2-31.4
			l-6.1-0.2L294.3,150.4z"/>
	</g>
</g>
</svg>
